<svg width="125" height="125" viewBox="0 0 125 125" fill="none" xmlns="http://www.w3.org/2000/svg">
<g id="bx:bxs-book-reader">
<path id="Vector" d="M113.583 42.6845V100.702C113.553 100.702 113.522 100.702 113.491 100.702C112.764 100.704 111.699 100.724 110.336 100.79C107.611 100.923 103.691 101.244 98.8922 101.998C89.3964 103.492 76.4483 106.682 62.5 113.47C48.5517 106.682 35.6036 103.492 26.1078 101.998C21.3091 101.244 17.3893 100.923 14.6636 100.79C13.3006 100.724 12.2359 100.704 11.5089 100.702C11.4775 100.702 11.4468 100.702 11.4167 100.702V42.6845C11.4915 42.6866 11.5702 42.6888 11.653 42.6914C12.465 42.7162 13.6552 42.7659 15.1589 42.8656C18.1669 43.065 22.4265 43.4642 27.4215 44.2629C37.4222 45.8619 50.3208 49.0546 62.0224 55.4151L62.5 55.6747L62.9776 55.4151C74.6792 49.0546 87.5778 45.8619 97.5785 44.2629C102.574 43.4642 106.833 43.065 109.841 42.8656C111.345 42.7659 112.535 42.7162 113.347 42.6914C113.43 42.6888 113.509 42.6866 113.583 42.6845Z" fill="url(#paint0_linear_1_25)" stroke="black" stroke-width="2"/>
<path id="Vector_2" d="M77.125 26.0417C77.125 34.1188 70.5772 40.6667 62.5 40.6667C54.4228 40.6667 47.875 34.1188 47.875 26.0417C47.875 17.9645 54.4228 11.4167 62.5 11.4167C70.5772 11.4167 77.125 17.9645 77.125 26.0417Z" fill="url(#paint1_linear_1_25)" stroke="black" stroke-width="2"/>
<path id="Vector_3" d="M62.5 68V79.7222C61.6642 79.3444 60.7008 79.1111 59.6667 79.1111C56.5358 79.1111 54 81.1 54 83.5556C54 86.0111 56.5358 88 59.6667 88C62.7975 88 65.3333 86.0111 65.3333 83.5556V72.4444H71V68H62.5ZM59.6667 85.7778C58.1083 85.7778 56.8333 84.7778 56.8333 83.5556C56.8333 82.3333 58.1083 81.3333 59.6667 81.3333C61.225 81.3333 62.5 82.3333 62.5 83.5556C62.5 84.7778 61.225 85.7778 59.6667 85.7778Z" fill="#F2F2F2"/>
</g>
<defs>
<linearGradient id="paint0_linear_1_25" x1="62.5" y1="41.6667" x2="62.5" y2="114.583" gradientUnits="userSpaceOnUse">
<stop stop-color="#2F80ED"/>
<stop offset="1" stop-color="#56CCF2"/>
</linearGradient>
<linearGradient id="paint1_linear_1_25" x1="62.5" y1="10.4167" x2="62.5" y2="41.6667" gradientUnits="userSpaceOnUse">
<stop stop-color="#EB5757"/>
<stop offset="1" stop-color="#EB5757"/>
</linearGradient>
</defs>
</svg>
