<svg width="39" height="39" viewBox="0 0 39 39" fill="none" xmlns="http://www.w3.org/2000/svg">
<g id="flat-color-icons:google">
<path id="Vector" d="M35.4339 16.3174H34.125V16.25H19.5V22.75H28.6837C27.3439 26.5338 23.7437 29.25 19.5 29.25C14.1156 29.25 9.75 24.8844 9.75 19.5C9.75 14.1156 14.1156 9.75 19.5 9.75C21.9854 9.75 24.2466 10.6876 25.9683 12.2192L30.5646 7.62288C27.6624 4.91806 23.7803 3.25 19.5 3.25C10.5259 3.25 3.25 10.5259 3.25 19.5C3.25 28.4741 10.5259 35.75 19.5 35.75C28.4741 35.75 35.75 28.4741 35.75 19.5C35.75 18.4104 35.6379 17.3469 35.4339 16.3174Z" fill="#FFC107"/>
<path id="Vector_2" d="M5.12363 11.9364L10.4626 15.8519C11.9072 12.2753 15.4058 9.75 19.5 9.75C21.9854 9.75 24.2466 10.6876 25.9683 12.2192L30.5646 7.62288C27.6624 4.91806 23.7803 3.25 19.5 3.25C13.2584 3.25 7.8455 6.77381 5.12363 11.9364Z" fill="#FF3D00"/>
<path id="Vector_3" d="M19.5 35.75C23.6974 35.75 27.5113 34.1437 30.3948 31.5315L25.3654 27.2756C23.6791 28.5581 21.6186 29.2517 19.5 29.25C15.2734 29.25 11.6846 26.5549 10.3326 22.7939L5.03345 26.8767C7.72282 32.1393 13.1844 35.75 19.5 35.75Z" fill="#4CAF50"/>
<path id="Vector_4" d="M35.4339 16.3174H34.125V16.25H19.5V22.75H28.6837C28.0428 24.5508 26.8884 26.1245 25.363 27.2764L25.3654 27.2748L30.3948 31.5307C30.0389 31.8541 35.75 27.625 35.75 19.5C35.75 18.4104 35.6379 17.3469 35.4339 16.3174Z" fill="#1976D2"/>
</g>
</svg>
