<svg width="25" height="22" viewBox="0 0 25 22" fill="none" xmlns="http://www.w3.org/2000/svg">
<g id="ion:stats-chart">
<path id="Vector" d="M5.07812 21.3125H3.51562C3.20482 21.3125 2.90675 21.2038 2.68698 21.0105C2.46722 20.8171 2.34375 20.5548 2.34375 20.2812V14.0938C2.34375 13.8202 2.46722 13.5579 2.68698 13.3645C2.90675 13.1711 3.20482 13.0625 3.51562 13.0625H5.07812C5.38893 13.0625 5.687 13.1711 5.90677 13.3645C6.12654 13.5579 6.25 13.8202 6.25 14.0938V20.2812C6.25 20.5548 6.12654 20.8171 5.90677 21.0105C5.687 21.2038 5.38893 21.3125 5.07812 21.3125Z" fill="#828282"/>
<path id="Vector_2" d="M16.0156 21.3125H14.4531C14.1423 21.3125 13.8443 21.2038 13.6245 21.0105C13.4047 20.8171 13.2812 20.5548 13.2812 20.2812V9.96875C13.2812 9.69525 13.4047 9.43294 13.6245 9.23955C13.8443 9.04615 14.1423 8.9375 14.4531 8.9375H16.0156C16.3264 8.9375 16.6245 9.04615 16.8443 9.23955C17.064 9.43294 17.1875 9.69525 17.1875 9.96875V20.2812C17.1875 20.5548 17.064 20.8171 16.8443 21.0105C16.6245 21.2038 16.3264 21.3125 16.0156 21.3125Z" fill="#828282"/>
<path id="Vector_3" d="M21.4844 21.3125H19.9219C19.6111 21.3125 19.313 21.2038 19.0932 21.0105C18.8735 20.8171 18.75 20.5548 18.75 20.2812V5.15625C18.75 4.88275 18.8735 4.62044 19.0932 4.42705C19.313 4.23365 19.6111 4.125 19.9219 4.125H21.4844C21.7952 4.125 22.0932 4.23365 22.313 4.42705C22.5328 4.62044 22.6562 4.88275 22.6562 5.15625V20.2812C22.6562 20.5548 22.5328 20.8171 22.313 21.0105C22.0932 21.2038 21.7952 21.3125 21.4844 21.3125Z" fill="#828282"/>
<path id="Vector_4" d="M10.5469 21.3125H8.98438C8.67357 21.3125 8.3755 21.2038 8.15573 21.0105C7.93596 20.8171 7.8125 20.5548 7.8125 20.2812V1.71875C7.8125 1.44525 7.93596 1.18294 8.15573 0.989546C8.3755 0.796149 8.67357 0.6875 8.98438 0.6875H10.5469C10.8577 0.6875 11.1557 0.796149 11.3755 0.989546C11.5953 1.18294 11.7188 1.44525 11.7188 1.71875V20.2812C11.7188 20.5548 11.5953 20.8171 11.3755 21.0105C11.1557 21.2038 10.8577 21.3125 10.5469 21.3125Z" fill="#828282"/>
</g>
</svg>
